<svg xmlns="http://www.w3.org/2000/svg" viewBox="0 0 393.652 393.652" xml:space="preserve">
  <path xmlns="http://www.w3.org/2000/svg" d="M289.289 17.169C278.229 6.098 263.52.001 247.872.001c-21.892 0-41.002 12.084-51.045 29.925C186.784 12.085 167.674 0 145.783 0c-32.281 0-58.544 26.263-58.544 58.544a7.5 7.5 0 0 0 15 0c0-24.01 19.533-43.544 43.544-43.544 24.01 0 43.544 19.534 43.544 43.544v20.378a7.5 7.5 0 0 0 7.5 7.5 7.5 7.5 0 0 0 7.5-7.5V58.544c0-24.01 19.534-43.543 43.545-43.543 11.639 0 22.579 4.535 30.806 12.769a7.5 7.5 0 0 0 10.606.005 7.498 7.498 0 0 0 .005-10.606zm15.447 27.407a7.5 7.5 0 0 0-14.568 3.571 43.74 43.74 0 0 1 1.247 10.396 7.5 7.5 0 0 0 7.5 7.5 7.5 7.5 0 0 0 7.5-7.5c0-4.724-.564-9.423-1.679-13.967z" fill="#00b3e3"/>
</svg>
